:FULLY-SPECIFIED
:FORCE-ALL-JOINTS-BE-3DOF
:DEGREES
437
root 10.515 17.2105 25.6304 8.04124 -2.0322 -0.611769
lfemur -33.4126 4.17157 -24.6772
ltibia 31.9632 -0 0
lfoot -6.60802 6.69226 -0.00258306
ltoes 1.27923 -0 0
rfemur -4.62053 -0.752434 19.9745
rtibia 55.5706 -0 0
rfoot 13.8318 -3.56384 0.145807
rtoes -10.4088 0 0
lowerback -5.23704 2.12158 -1.09066
upperback -4.66908 2.87825 1.16958
thorax -1.9928 1.49161 1.91602
lowerneck -15.6785 -5.29328 -15.0152
upperneck 22.5761 -6.86065 13.3296
head 10.8579 -2.96242 6.44377
lclavicle 1.62133e-14 1.92159e-15 0
lhumerus -43.1089 -3.45385 88.9837
lradius 19.1677 -0 0
lwrist -5.26546 0 0
lhand -12.9752 -25.3302 -0.00530996
lfingers 7.12502 0 0
lthumb 13.1171 4.23751 -0.004973
rclavicle 1.62133e-14 1.92159e-15 0
rhumerus -46.6991 9.93775 -90.6968
rradius 29.7779 -0 0
rwrist -12.6428 0 0
rhand -34.4398 -18.1108 -0.100826
rfingers 7.12502 0 0
rthumb -7.60342 -47.9291 -0.0998304
438
root 10.5291 17.2324 25.7387 8.03036 -1.91903 -0.707885
lfemur -32.8204 4.22098 -24.6125
ltibia 31.5888 -0 0
lfoot -6.83314 6.5603 -0.00170066
ltoes 0.716842 -0 0
rfemur -6.16121 -0.83594 20.169
rtibia 57.5179 -0 0
rfoot 12.0558 -5.27721 0.0741177
rtoes -9.93288 0 0
lowerback -4.98554 1.9559 -0.975699
upperback -4.56652 2.65305 1.26011
thorax -2.01425 1.37664 1.92781
lowerneck -16.3333 -5.25126 -14.7719
upperneck 22.7217 -6.72646 13.0991
head 10.9983 -2.88253 6.33448
lclavicle 2.24316e-14 4.34013e-15 0
lhumerus -41.9108 -3.82001 89.198
lradius 19.0792 -0 0
lwrist -5.12203 0 0
lhand -13.2585 -25.298 -0.00257181
lfingers 7.12502 0 0
lthumb 12.844 4.2868 -0.0024604
rclavicle 2.24316e-14 4.34013e-15 0
rhumerus -46.5548 9.95946 -90.5682
rradius 29.8997 -0 0
rwrist -12.2849 0 0
rhand -35.6676 -16.7738 -0.0382636
rfingers 7.12502 0 0
rthumb -8.78872 -46.5596 -0.0380055
439
root 10.5433 17.2543 25.847 7.93048 -1.78989 -0.631935
lfemur -31.971 4.27498 -24.7621
ltibia 31.1109 0 0
lfoot -7.11285 6.39123 0
ltoes 0.328199 0 0
rfemur -7.43012 -0.997162 20.1013
rtibia 59.1401 0 0
rfoot 10.4679 -6.50573 0
rtoes -9.71383 0 0
lowerback -4.86194 1.77736 -0.979049
upperback -4.4591 2.4151 1.29785
thorax -1.96084 1.25646 1.95397
lowerneck -16.7197 -5.17553 -14.5697
upperneck 22.8437 -6.57714 12.8916
head 11.078 -2.80616 6.24422
lclavicle 2.86498e-14 6.75868e-15 0
lhumerus -40.8572 -4.20007 89.3841
lradius 19.0471 0 0
lwrist -5.06057 0 0
lhand -13.3808 -25.2087 0
lfingers 7.12502 0 0
lthumb 12.7261 4.3835 0
rclavicle 2.86498e-14 6.75868e-15 0
rhumerus -46.545 10.0194 -90.4803
rradius 30.0551 0 0
rwrist -12.0386 0 0
rhand -36.2869 -16.3683 0
rfingers 7.12502 0 0
rthumb -9.38662 -46.1393 0
440
root 10.5712 17.283 26.0081 7.70513 -1.62687 -0.315667
lfemur -30.7436 4.34925 -25.2167
ltibia 30.4531 -0 0
lfoot -7.44712 6.15377 0.00246985
ltoes 0.148536 -0 0
rfemur -8.31557 -1.29703 19.6676
rtibia 60.3603 -0 0
rfoot 9.03611 -7.18188 -0.0463657
rtoes -9.74537 0 0
lowerback -4.914 1.57719 -1.14583
upperback -4.33488 2.15399 1.26253
thorax -1.79395 1.12598 2.00082
lowerneck -16.7673 -5.05854 -14.4179
upperneck 22.9355 -6.40612 12.7058
head 11.0797 -2.73323 6.17472
lclavicle 2.18621e-14 5.63223e-15 0
lhumerus -39.9827 -4.59774 89.5564
lradius 19.081 -0 0
lwrist -5.10198 0 0
lhand -13.2785 -25.0166 0.00309118
lfingers 7.12502 0 0
lthumb 12.8247 4.56913 0.00290516
rclavicle 2.18621e-14 5.63223e-15 0
rhumerus -46.6982 10.1337 -90.4446
rradius 30.2535 -0 0
rwrist -11.9069 0 0
rhand -36.1066 -17.2346 -0.0257175
rfingers 7.12502 0 0
rthumb -9.21268 -47.014 -0.0249135
441
root 10.5991 17.3117 26.1691 7.37317 -1.41596 0.191387
lfemur -29.1938 4.44643 -25.9145
ltibia 29.626 -0 0
lfoot -7.81148 5.85084 0.0048866
ltoes 0.122735 -0 0
rfemur -8.86548 -1.72215 18.9479
rtibia 61.2137 -0 0
rfoot 7.60128 -7.4737 -0.0678896
rtoes -9.94914 0 0
lowerback -5.11335 1.35051 -1.44191
upperback -4.17441 1.86331 1.17062
thorax -1.50841 0.980998 2.0666
lowerneck -16.5957 -4.91396 -14.2916
upperneck 23.0077 -6.21828 12.5247
head 11.0299 -2.66138 6.11372
lclavicle 1.50745e-14 4.50579e-15 0
lhumerus -39.2087 -5.03297 89.7382
lradius 19.1656 -0 0
lwrist -5.21173 0 0
lhand -12.9706 -24.7113 0.0067103
lfingers 7.12502 0 0
lthumb 13.1215 4.85446 0.00615899
rclavicle 1.50745e-14 4.50579e-15 0
rhumerus -46.9362 10.2879 -90.4349
rradius 30.4999 -0 0
rwrist -11.8405 0 0
rhand -35.2894 -19.1554 -0.0879372
rfingers 7.12502 0 0
rthumb -8.42382 -48.9614 -0.0857891
442
root 10.627 17.3404 26.3301 6.98644 -1.17393 0.790576
lfemur -27.4871 4.5611 -26.7258
ltibia 28.7278 -0 0
lfoot -8.19988 5.52223 0.00611357
ltoes 0.192966 -0 0
rfemur -9.22766 -2.20128 18.092
rtibia 61.8053 -0 0
rfoot 6.16193 -7.50977 -0.0645074
rtoes -10.3134 0 0
lowerback -5.39205 1.10665 -1.80117
upperback -3.98717 1.55478 1.05128
thorax -1.15131 0.826567 2.14239
lowerneck -16.3226 -4.7571 -14.1724
upperneck 23.0711 -6.02335 12.3452
head 10.9567 -2.59041 6.05582
lclavicle 8.2868e-15 3.37934e-15 0
lhumerus -38.4724 -5.50435 89.9179
lradius 19.2852 -0 0
lwrist -5.35511 0 0
lhand -12.5413 -24.3476 0.00846629
lfingers 7.12502 0 0
lthumb 13.5352 5.19029 0.00767683
rclavicle 8.2868e-15 3.37934e-15 0
rhumerus -47.2039 10.4587 -90.4305
rradius 30.7839 -0 0
rwrist -11.8235 0 0
rhand -34.115 -21.6498 -0.128512
rfingers 7.12502 0 0
rthumb -7.29021 -51.4924 -0.125591
443
root 10.6549 17.3691 26.4912 6.59581 -0.919389 1.38381
lfemur -25.7884 4.6775 -27.5218
ltibia 27.8567 -0 0
lfoot -8.60624 5.20774 0.00556718
ltoes 0.301403 -0 0
rfemur -9.55366 -2.66317 17.2508
rtibia 62.2401 -0 0
rfoot 4.71697 -7.41831 -0.0425274
rtoes -10.8263 0 0
lowerback -5.68276 0.855913 -2.15806
upperback -3.7829 1.23995 0.933786
thorax -0.769706 0.66791 2.21955
lowerneck -16.0658 -4.60279 -14.0423
upperneck 23.1363 -5.83098 12.1646
head 10.8884 -2.52002 5.99569
lclavicle 1.49913e-15 2.25289e-15 0
lhumerus -37.7103 -6.01056 90.0835
lradius 19.4237 -0 0
lwrist -5.49738 0 0
lhand -12.0746 -23.9801 0.0072024
lfingers 7.12502 0 0
lthumb 13.9849 5.52737 0.00648459
rclavicle 1.49913e-15 2.25289e-15 0
rhumerus -47.4459 10.623 -90.4105
rradius 31.0951 -0 0
rwrist -11.8399 0 0
rhand -32.867 -24.2354 -0.114685
rfingers 7.12502 0 0
rthumb -6.08538 -54.1164 -0.11215
444
root 10.6828 17.3978 26.6523 6.25094 -0.673242 1.8737
lfemur -24.2618 4.76809 -28.1758
ltibia 27.1106 -0 0
lfoot -9.02452 4.94717 0.00329308
ltoes 0.390217 -0 0
rfemur -9.99947 -3.03891 16.5766
rtibia 62.6232 -0 0
rfoot 3.26538 -7.32697 -0.0146489
rtoes -11.4762 0 0
lowerback -5.91885 0.609996 -2.44773
upperback -3.57176 0.930129 0.8476
thorax -0.410565 0.510473 2.28974
lowerneck -15.9428 -4.46551 -13.8844
upperneck 23.2143 -5.65075 11.9798
head 10.8531 -2.44989 5.92805
lclavicle -5.28853e-15 1.12645e-15 0
lhumerus -36.859 -6.5503 90.2213
lradius 19.5654 -0 0
lwrist -5.60382 0 0
lhand -11.6549 -23.6636 0.00360358
lfingers 7.12502 0 0
lthumb 14.3895 5.81648 0.00323054
rclavicle -5.28853e-15 1.12645e-15 0
rhumerus -47.6069 10.7575 -90.3533
rradius 31.4228 -0 0
rwrist -11.8738 0 0
rhand -31.8296 -26.4292 -0.0564674
rfingers 7.12502 0 0
rthumb -5.08398 -56.3424 -0.0552239
445
root 10.7107 17.4265 26.8133 6.00027 -0.458248 2.16355
lfemur -23.0705 4.7957 -28.5627
ltibia 26.5877 0 0
lfoot -9.44864 4.78035 0
ltoes 0.40158 0 0
rfemur -10.7242 -3.26021 16.2227
rtibia 63.0596 0 0
rfoot 1.80601 -7.36258 0
rtoes -12.2513 0 0
lowerback -6.03434 0.381693 -2.60597
upperback -3.3642 0.636374 0.822356
thorax -0.120806 0.359915 2.34495
lowerneck -16.0712 -4.35901 -13.6819
upperneck 23.316 -5.49214 11.7882
head 10.8791 -2.37963 5.84771
lclavicle -1.20762e-14 0 0
lhumerus -35.8543 -7.12209 90.3168
lradius 19.6945 0 0
lwrist -5.63968 0 0
lhand -11.3662 -23.4528 0
lfingers 7.12502 0 0
lthumb 14.6677 6.00839 0
rclavicle -1.20762e-14 0 0
rhumerus -47.6312 10.8391 -90.237
rradius 31.7566 0 0
rwrist -11.9094 0 0
rhand -31.2847 -27.7496 0
rfingers 7.12502 0 0
rthumb -4.55804 -57.6806 0
446
root 10.7213 17.4323 26.9116 5.85771 -0.282046 2.2122
lfemur -22.2696 4.72139 -28.6306
ltibia 26.3233 -0 0
lfoot -9.88773 4.73429 -0.0032916
ltoes 0.309276 -0 0
rfemur -11.7821 -3.29405 16.2558
rtibia 63.5583 -0 0
rfoot 0.317363 -7.50901 0.00101608
rtoes -13.3215 0 0
lowerback -6.0156 0.173921 -2.5987
upperback -3.15161 0.358804 0.870349
thorax 0.100723 0.21629 2.37816
lowerneck -16.5212 -4.29021 -13.4146
upperneck 23.4532 -5.36062 11.5753
head 10.9846 -2.30962 5.74524
lclavicle -8.38005e-15 -3.9757e-16 0
lhumerus -34.6407 -7.73064 90.3625
lradius 19.8048 -0 0
lwrist -5.61872 0 0
lhand -11.1912 -23.3545 -0.00204705
lfingers 7.12502 0 0
lthumb 14.8363 6.09504 -0.00182448
rclavicle -8.38005e-15 -3.9757e-16 0
rhumerus -47.4779 10.8484 -90.0379
rradius 32.11 -0 0
rwrist -11.9288 0 0
rhand -31.3281 -28.0198 0.0208491
rfingers 7.12502 0 0
rthumb -4.59999 -57.9514 0.0203281
447
root 10.7319 17.438 27.01 5.78592 -0.129733 2.08947
lfemur -21.7392 4.5561 -28.4717
ltibia 26.2459 -0 0
lfoot -10.3485 4.78257 -0.00559385
ltoes 0.154323 -0 0
rfemur -13.0587 -3.18134 16.5634
rtibia 64.037 -0 0
rfoot -1.20395 -7.6617 0.00287848
rtoes -14.7301 0 0
lowerback -5.91362 -0.0224346 -2.47117
upperback -2.92444 0.0881928 0.970252
thorax 0.291873 0.0752735 2.39459
lowerneck -17.213 -4.24698 -13.0923
upperneck 23.6197 -5.24942 11.3407
head 11.1506 -2.24002 5.62306
lclavicle -4.6839e-15 -7.9514e-16 0
lhumerus -33.2567 -8.37693 90.3637
lradius 19.9077 -0 0
lwrist -5.57146 0 0
lhand -11.0592 -23.3263 -0.00295914
lfingers 7.12502 0 0
lthumb 14.9635 6.11419 -0.00261949
rclavicle -4.6839e-15 -7.9514e-16 0
rhumerus -47.1835 10.7991 -89.7687
rradius 32.494 -0 0
rwrist -11.9412 0 0
rhand -31.7533 -27.5899 0.01773
rfingers 7.12502 0 0
rthumb -5.01054 -57.5107 0.0171819
448
root 10.7424 17.4438 27.1083 5.75626 0.00956169 1.86532
lfemur -21.3807 4.33667 -28.1769
ltibia 26.2936 -0 0
lfoot -10.8211 4.88477 -0.00616623
ltoes -0.0202518 0 0
rfemur -14.4602 -2.96406 17.0294
rtibia 64.464 -0 0
rfoot -2.73195 -7.81406 0.00428642
rtoes -16.2757 0 0
lowerback -5.7595 -0.21255 -2.27843
upperback -2.69177 -0.178483 1.10147
thorax 0.460772 -0.0639993 2.40477
lowerneck -18.0387 -4.2145 -12.7432
upperneck 23.7992 -5.14976 11.102
head 11.3496 -2.1701 5.49374
lclavicle -9.8775e-16 -1.19271e-15 0
lhumerus -31.7795 -9.05352 90.3246
lradius 20.0138 -0 0
lwrist -5.48836 0 0
lhand -10.9741 -23.3491 -0.00284731
lfingers 7.12502 0 0
lthumb 15.0455 6.08538 -0.00249266
rclavicle -9.8775e-16 -1.19271e-15 0
rhumerus -46.8085 10.7178 -89.4622
rradius 32.8946 -0 0
rwrist -11.9712 0 0
rhand -32.3869 -26.7691 0.00718257
rfingers 7.12502 0 0
rthumb -5.62223 -56.6728 0.00681266
449
root 10.753 17.4496 27.2066 5.7405 0.146921 1.60948
lfemur -21.0948 4.10195 -27.8362
ltibia 26.4044 -0 0
lfoot -11.2959 5.00048 -0.00491149
ltoes -0.171424 0 0
rfemur -15.8931 -2.6895 17.5398
rtibia 64.8075 -0 0
rfoot -4.24067 -7.95945 0.00442684
rtoes -17.7567 0 0
lowerback -5.58397 -0.401392 -2.07533
upperback -2.46254 -0.444057 1.24346
thorax 0.615497 -0.202472 2.41917
lowerneck -18.8903 -4.17971 -12.396
upperneck 23.9753 -5.05308 10.8771
head 11.5539 -2.09932 5.36981
lclavicle 2.7084e-15 -1.59028e-15 0
lhumerus -30.2862 -9.75313 90.2515
lradius 20.1337 -0 0
lwrist -5.35988 0 0
lhand -10.9397 -23.4036 -0.00201862
lfingers 7.12502 0 0
lthumb 15.0786 6.02816 -0.00173576
rclavicle 2.7084e-15 -1.59028e-15 0
rhumerus -46.4132 10.6318 -89.1507
rradius 33.2977 -0 0
rwrist -12.0431 0 0
rhand -33.0552 -25.8667 0.00144295
rfingers 7.12502 0 0
rthumb -6.2675 -55.752 0.00122653
